<svg width="29" height="32" viewBox="0 0 29 32" fill="none" xmlns="http://www.w3.org/2000/svg">
<g clip-path="url(#clip0_16_369)">
<path d="M5.829 17.6341L18.2608 1.6784L18.51 1.34293L19.5191 0H17.4244L7.5253 12.7104V0H0V24.8368L5.82526 17.6L5.829 17.6341ZM1.69629 20.1515V1.6784H5.829V14.8517L1.69629 20.1515Z" fill="white"/>
<path d="M15.2469 13.944L26.2113 0H24.0647L22.8882 1.5104L22.747 1.67467L13.1302 13.9056L24.8 29.9589H19.9181L10.3703 16.64L5.829 22.3045V29.9573H1.69629L1.68613 25.9701L0.00320863 27.9835L0 31.6336H7.5253V22.8869L10.2949 19.4315L19.0416 31.6336H28.1044L15.2469 13.944Z" fill="#00FFB2"/>
</g>
<defs>
<clipPath id="clip0_16_369">
<rect width="28.3429" height="32" fill="white"/>
</clipPath>
</defs>
</svg>
